<svg width="14" height="14" viewBox="0 0 14 14" fill="none" xmlns="http://www.w3.org/2000/svg">
<path d="M1.43148 4.63139C1.59557 4.46736 1.81809 4.37521 2.05011 4.37521C2.28212 4.37521 2.50464 4.46736 2.66873 4.63139L6.99998 8.96264L11.3312 4.63139C11.4963 4.47201 11.7173 4.38381 11.9467 4.3858C12.1761 4.3878 12.3956 4.47982 12.5578 4.64205C12.7201 4.80428 12.8121 5.02375 12.8141 5.25317C12.8161 5.48259 12.7279 5.70362 12.5685 5.86864L7.61861 10.8185C7.45452 10.9826 7.232 11.0747 6.99998 11.0747C6.76796 11.0747 6.54544 10.9826 6.38136 10.8185L1.43148 5.86864C1.26744 5.70456 1.17529 5.48204 1.17529 5.25002C1.17529 5.018 1.26744 4.79548 1.43148 4.63139Z" fill="#3D2E87"/>
</svg>
