<svg width="407" height="310" viewBox="0 0 407 310" fill="none" xmlns="http://www.w3.org/2000/svg">
<g filter="url(#filter0_d_38_210)">
<rect x="21" y="65" width="288" height="180" rx="24" fill="#FCFCFC" fill-opacity="0.1" shape-rendering="crispEdges"/>
</g>
<g filter="url(#filter1_d_38_210)">
<rect x="54" y="48" width="288" height="215" rx="24" fill="#F3F6F7" fill-opacity="0.6" shape-rendering="crispEdges"/>
</g>
<g filter="url(#filter2_d_38_210)">
<rect x="89" y="30" width="288" height="250" rx="24" fill="url(#paint0_linear_38_210)"/>
</g>
<path d="M133.695 76.171C132.591 76.171 131.61 76.042 130.752 75.784C129.894 75.52 129.165 75.115 128.565 74.569C127.971 74.017 127.521 73.312 127.215 72.454C126.909 71.596 126.756 70.567 126.756 69.367C126.756 67.843 127.032 66.574 127.584 65.56C128.136 64.54 128.94 63.778 129.996 63.274C131.052 62.764 132.333 62.509 133.839 62.509C134.349 62.509 134.841 62.536 135.315 62.59C135.789 62.638 136.251 62.716 136.701 62.824V65.236C136.281 65.134 135.852 65.056 135.414 65.002C134.982 64.948 134.535 64.921 134.073 64.921C133.113 64.921 132.318 65.071 131.688 65.371C131.064 65.665 130.596 66.136 130.284 66.784C129.972 67.432 129.816 68.281 129.816 69.331C129.816 70.417 129.969 71.284 130.275 71.932C130.587 72.574 131.049 73.039 131.661 73.327C132.279 73.615 133.05 73.759 133.974 73.759C134.43 73.759 134.883 73.723 135.333 73.651C135.783 73.573 136.239 73.468 136.701 73.336V75.739C136.275 75.871 135.801 75.976 135.279 76.054C134.763 76.132 134.235 76.171 133.695 76.171ZM138.251 76V66.154H141.122V76H138.251ZM139.682 64.723C139.082 64.723 138.635 64.591 138.341 64.327C138.053 64.063 137.909 63.697 137.909 63.229C137.909 62.749 138.053 62.38 138.341 62.122C138.635 61.858 139.082 61.726 139.682 61.726C140.288 61.726 140.735 61.858 141.023 62.122C141.311 62.38 141.455 62.749 141.455 63.229C141.455 63.697 141.311 64.063 141.023 64.327C140.735 64.591 140.288 64.723 139.682 64.723ZM147.643 76.18C146.455 76.18 145.54 75.886 144.898 75.298C144.262 74.704 143.944 73.765 143.944 72.481V66.154L144.466 62.68H146.806V72.031C146.806 72.709 146.932 73.177 147.184 73.435C147.442 73.693 147.856 73.822 148.426 73.822C148.582 73.822 148.741 73.813 148.903 73.795C149.071 73.771 149.257 73.741 149.461 73.705V75.973C149.203 76.027 148.912 76.075 148.588 76.117C148.27 76.159 147.955 76.18 147.643 76.18ZM142.342 68.413V66.154H149.398V68.413H142.342ZM150.925 76V66.154H153.796V76H150.925ZM152.356 64.723C151.756 64.723 151.309 64.591 151.015 64.327C150.727 64.063 150.583 63.697 150.583 63.229C150.583 62.749 150.727 62.38 151.015 62.122C151.309 61.858 151.756 61.726 152.356 61.726C152.962 61.726 153.409 61.858 153.697 62.122C153.985 62.38 154.129 62.749 154.129 63.229C154.129 63.697 153.985 64.063 153.697 64.327C153.409 64.591 152.962 64.723 152.356 64.723ZM159.471 80.14C158.949 80.14 158.403 80.107 157.833 80.041C157.263 79.981 156.711 79.879 156.177 79.735V77.494C156.729 77.644 157.266 77.755 157.788 77.827C158.31 77.899 158.796 77.935 159.246 77.935C160.206 77.935 160.902 77.755 161.334 77.395C161.772 77.035 161.991 76.435 161.991 75.595V74.947H161.856C161.574 75.295 161.217 75.568 160.785 75.766C160.359 75.964 159.867 76.063 159.309 76.063C158.637 76.063 158.01 75.895 157.428 75.559C156.846 75.217 156.375 74.695 156.015 73.993C155.661 73.285 155.484 72.379 155.484 71.275C155.484 69.577 155.946 68.275 156.87 67.369C157.794 66.457 159.195 66.001 161.073 66.001C161.493 66.001 161.925 66.022 162.369 66.064C162.819 66.106 163.257 66.169 163.683 66.253C164.109 66.331 164.502 66.43 164.862 66.55V75.073C164.862 76.855 164.418 78.145 163.53 78.943C162.642 79.741 161.289 80.14 159.471 80.14ZM160.398 73.732C160.686 73.732 160.971 73.684 161.253 73.588C161.535 73.486 161.781 73.336 161.991 73.138V68.296C161.835 68.26 161.655 68.23 161.451 68.206C161.253 68.182 161.043 68.17 160.821 68.17C160.029 68.17 159.423 68.392 159.003 68.836C158.583 69.274 158.373 70.006 158.373 71.032C158.373 71.728 158.457 72.274 158.625 72.67C158.793 73.06 159.027 73.336 159.327 73.498C159.633 73.654 159.99 73.732 160.398 73.732ZM167.009 76V66.154H169.358L169.574 67.423H169.718C169.994 66.937 170.36 66.583 170.816 66.361C171.272 66.133 171.773 66.019 172.319 66.019C172.469 66.019 172.613 66.025 172.751 66.037C172.889 66.049 173.012 66.067 173.12 66.091V68.683C172.97 68.653 172.808 68.635 172.634 68.629C172.466 68.617 172.304 68.611 172.148 68.611C171.866 68.611 171.581 68.647 171.293 68.719C171.005 68.785 170.738 68.89 170.492 69.034C170.246 69.172 170.039 69.343 169.871 69.547V76H167.009ZM178.563 76.189C177.579 76.189 176.727 76.003 176.007 75.631C175.293 75.253 174.741 74.689 174.351 73.939C173.961 73.183 173.766 72.238 173.766 71.104C173.766 69.958 173.955 69.007 174.333 68.251C174.717 67.495 175.266 66.931 175.98 66.559C176.7 66.187 177.561 66.001 178.563 66.001C179.565 66.001 180.423 66.19 181.137 66.568C181.857 66.94 182.406 67.504 182.784 68.26C183.168 69.01 183.36 69.952 183.36 71.086C183.36 72.226 183.165 73.174 182.775 73.93C182.385 74.686 181.83 75.253 181.11 75.631C180.396 76.003 179.547 76.189 178.563 76.189ZM178.563 74.011C178.965 74.011 179.307 73.924 179.589 73.75C179.877 73.576 180.096 73.279 180.246 72.859C180.396 72.433 180.471 71.851 180.471 71.113C180.471 70.357 180.396 69.766 180.246 69.34C180.096 68.914 179.877 68.614 179.589 68.44C179.307 68.26 178.965 68.17 178.563 68.17C178.161 68.17 177.816 68.257 177.528 68.431C177.246 68.605 177.03 68.905 176.88 69.331C176.73 69.751 176.655 70.333 176.655 71.077C176.655 71.833 176.73 72.424 176.88 72.85C177.03 73.276 177.246 73.576 177.528 73.75C177.816 73.924 178.161 74.011 178.563 74.011ZM188.356 76.171C187.702 76.171 187.12 76.045 186.61 75.793C186.1 75.535 185.698 75.124 185.404 74.56C185.11 73.996 184.963 73.249 184.963 72.319V66.154H187.834V72.121C187.834 72.715 187.957 73.126 188.203 73.354C188.455 73.582 188.782 73.696 189.184 73.696C189.382 73.696 189.589 73.669 189.805 73.615C190.027 73.555 190.237 73.465 190.435 73.345C190.633 73.225 190.807 73.075 190.957 72.895V66.154H193.819V76H191.461L191.263 75.01H191.137C190.765 75.388 190.342 75.676 189.868 75.874C189.394 76.072 188.89 76.171 188.356 76.171ZM195.96 79.96V66.154H198.372L198.543 67.207H198.678C198.96 66.841 199.32 66.55 199.758 66.334C200.202 66.112 200.715 66.001 201.297 66.001C202.023 66.001 202.692 66.166 203.304 66.496C203.916 66.826 204.405 67.351 204.771 68.071C205.143 68.785 205.329 69.724 205.329 70.888C205.329 72.034 205.125 73 204.717 73.786C204.315 74.572 203.715 75.169 202.917 75.577C202.125 75.979 201.141 76.18 199.965 76.18C199.767 76.18 199.569 76.171 199.371 76.153C199.179 76.141 198.996 76.126 198.822 76.108V79.96H195.96ZM199.965 74.002C200.793 74.002 201.414 73.78 201.828 73.336C202.242 72.892 202.449 72.151 202.449 71.113C202.449 70.393 202.365 69.832 202.197 69.43C202.029 69.028 201.795 68.746 201.495 68.584C201.195 68.422 200.847 68.341 200.451 68.341C200.157 68.341 199.863 68.395 199.569 68.503C199.281 68.605 199.032 68.773 198.822 69.007V73.885C198.984 73.915 199.167 73.942 199.371 73.966C199.575 73.99 199.773 74.002 199.965 74.002Z" fill="#3D2E87"/>
<circle cx="317" cy="69.5" r="3" fill="#772BC7"/>
<circle cx="327" cy="69.5" r="3" fill="#772BC7"/>
<circle cx="337" cy="69.5" r="3" fill="#772BC7"/>
<path d="M132.944 135.266C131.992 135.266 131.017 135.191 130.018 135.042C129.029 134.902 128.109 134.701 127.26 134.44V130.744C127.848 130.921 128.473 131.075 129.136 131.206C129.799 131.337 130.452 131.439 131.096 131.514C131.74 131.579 132.333 131.612 132.874 131.612C133.854 131.612 134.633 131.519 135.212 131.332C135.791 131.136 136.206 130.861 136.458 130.506C136.719 130.142 136.85 129.703 136.85 129.19C136.85 128.546 136.635 128.042 136.206 127.678C135.786 127.314 134.997 126.983 133.84 126.684L132.272 126.278C130.461 125.821 129.089 125.111 128.156 124.15C127.232 123.179 126.77 121.901 126.77 120.314C126.77 118.335 127.493 116.791 128.94 115.68C130.387 114.569 132.585 114.014 135.534 114.014C136.411 114.014 137.261 114.065 138.082 114.168C138.913 114.261 139.655 114.397 140.308 114.574V118.27C139.645 118.074 138.913 117.925 138.11 117.822C137.317 117.719 136.556 117.668 135.828 117.668C134.68 117.668 133.775 117.771 133.112 117.976C132.459 118.172 131.992 118.452 131.712 118.816C131.432 119.18 131.292 119.6 131.292 120.076C131.292 120.683 131.479 121.159 131.852 121.504C132.225 121.849 132.925 122.162 133.952 122.442L135.506 122.848C136.85 123.175 137.956 123.609 138.824 124.15C139.692 124.682 140.331 125.34 140.742 126.124C141.162 126.899 141.372 127.818 141.372 128.882C141.372 130.207 141.041 131.351 140.378 132.312C139.715 133.264 138.754 133.997 137.494 134.51C136.243 135.014 134.727 135.266 132.944 135.266ZM131.978 138.36V134.216L136.178 134.174V138.36H131.978ZM131.978 114.868V110.92H136.178V114.868H131.978ZM151.344 135L158.358 116.702L159.856 118.032H149.342V114.28H162.698V116.716L156.006 135H151.344ZM163.659 139.788C164.116 138.789 164.471 137.865 164.723 137.016C164.984 136.167 165.115 135.308 165.115 134.44L166.081 135.238H165.521C164.653 135.238 163.953 134.995 163.421 134.51C162.889 134.015 162.623 133.353 162.623 132.522C162.623 131.673 162.88 131.01 163.393 130.534C163.906 130.058 164.592 129.82 165.451 129.82C166.412 129.82 167.14 130.114 167.635 130.702C168.139 131.29 168.391 132.172 168.391 133.348C168.391 134.477 168.19 135.607 167.789 136.736C167.397 137.875 166.87 138.892 166.207 139.788H163.659ZM169.639 130.73V128.252L176.863 114.28H181.231L174.091 128.266L173.587 127.23H186.481V130.73H169.639ZM179.719 135V127.23L180.181 121.28H183.807V135H179.719ZM187.238 135V132.564L192.964 125.424C193.552 124.677 194.024 124.015 194.378 123.436C194.733 122.857 194.985 122.33 195.134 121.854C195.293 121.369 195.372 120.897 195.372 120.44C195.372 119.497 195.074 118.802 194.476 118.354C193.888 117.897 192.922 117.668 191.578 117.668C190.757 117.668 189.945 117.743 189.142 117.892C188.34 118.032 187.621 118.228 186.986 118.48V114.784C187.397 114.635 187.887 114.504 188.456 114.392C189.035 114.271 189.637 114.177 190.262 114.112C190.888 114.047 191.49 114.014 192.068 114.014C194.626 114.014 196.562 114.495 197.878 115.456C199.194 116.408 199.852 117.925 199.852 120.006C199.852 120.706 199.759 121.406 199.572 122.106C199.395 122.797 199.087 123.525 198.648 124.29C198.219 125.046 197.636 125.872 196.898 126.768L192.278 132.396L192.152 131.248H200.846V135H187.238ZM210.807 135.266C209.137 135.266 207.699 134.897 206.495 134.16C205.291 133.423 204.367 132.27 203.723 130.702C203.079 129.134 202.757 127.113 202.757 124.64C202.757 122.167 203.079 120.146 203.723 118.578C204.367 117.01 205.287 115.857 206.481 115.12C207.685 114.383 209.127 114.014 210.807 114.014C212.478 114.014 213.915 114.383 215.119 115.12C216.323 115.857 217.247 117.01 217.891 118.578C218.535 120.146 218.857 122.167 218.857 124.64C218.857 127.113 218.531 129.134 217.877 130.702C217.233 132.27 216.309 133.423 215.105 134.16C213.901 134.897 212.469 135.266 210.807 135.266ZM210.807 131.542C211.563 131.542 212.207 131.337 212.739 130.926C213.271 130.506 213.677 129.797 213.957 128.798C214.247 127.799 214.391 126.418 214.391 124.654C214.391 122.89 214.247 121.504 213.957 120.496C213.677 119.488 213.271 118.779 212.739 118.368C212.207 117.948 211.563 117.738 210.807 117.738C210.061 117.738 209.417 117.948 208.875 118.368C208.334 118.779 207.923 119.483 207.643 120.482C207.363 121.481 207.223 122.862 207.223 124.626C207.223 126.39 207.363 127.776 207.643 128.784C207.923 129.792 208.329 130.506 208.861 130.926C209.403 131.337 210.051 131.542 210.807 131.542ZM223.162 135.238C222.284 135.238 221.58 134.995 221.048 134.51C220.525 134.025 220.264 133.367 220.264 132.536C220.264 131.696 220.52 131.033 221.034 130.548C221.556 130.063 222.266 129.82 223.162 129.82C224.058 129.82 224.762 130.067 225.276 130.562C225.798 131.057 226.06 131.715 226.06 132.536C226.06 133.348 225.794 134.001 225.262 134.496C224.739 134.991 224.039 135.238 223.162 135.238ZM235.526 135.266C233.855 135.266 232.418 134.897 231.214 134.16C230.01 133.423 229.086 132.27 228.442 130.702C227.798 129.134 227.476 127.113 227.476 124.64C227.476 122.167 227.798 120.146 228.442 118.578C229.086 117.01 230.005 115.857 231.2 115.12C232.404 114.383 233.846 114.014 235.526 114.014C237.197 114.014 238.634 114.383 239.838 115.12C241.042 115.857 241.966 117.01 242.61 118.578C243.254 120.146 243.576 122.167 243.576 124.64C243.576 127.113 243.249 129.134 242.596 130.702C241.952 132.27 241.028 133.423 239.824 134.16C238.62 134.897 237.187 135.266 235.526 135.266ZM235.526 131.542C236.282 131.542 236.926 131.337 237.458 130.926C237.99 130.506 238.396 129.797 238.676 128.798C238.965 127.799 239.11 126.418 239.11 124.654C239.11 122.89 238.965 121.504 238.676 120.496C238.396 119.488 237.99 118.779 237.458 118.368C236.926 117.948 236.282 117.738 235.526 117.738C234.779 117.738 234.135 117.948 233.594 118.368C233.053 118.779 232.642 119.483 232.362 120.482C232.082 121.481 231.942 122.862 231.942 124.626C231.942 126.39 232.082 127.776 232.362 128.784C232.642 129.792 233.048 130.506 233.58 130.926C234.121 131.337 234.77 131.542 235.526 131.542ZM254.257 135.266C252.586 135.266 251.149 134.897 249.945 134.16C248.741 133.423 247.817 132.27 247.173 130.702C246.529 129.134 246.207 127.113 246.207 124.64C246.207 122.167 246.529 120.146 247.173 118.578C247.817 117.01 248.736 115.857 249.931 115.12C251.135 114.383 252.577 114.014 254.257 114.014C255.927 114.014 257.365 114.383 258.569 115.12C259.773 115.857 260.697 117.01 261.341 118.578C261.985 120.146 262.307 122.167 262.307 124.64C262.307 127.113 261.98 129.134 261.327 130.702C260.683 132.27 259.759 133.423 258.555 134.16C257.351 134.897 255.918 135.266 254.257 135.266ZM254.257 131.542C255.013 131.542 255.657 131.337 256.189 130.926C256.721 130.506 257.127 129.797 257.407 128.798C257.696 127.799 257.841 126.418 257.841 124.654C257.841 122.89 257.696 121.504 257.407 120.496C257.127 119.488 256.721 118.779 256.189 118.368C255.657 117.948 255.013 117.738 254.257 117.738C253.51 117.738 252.866 117.948 252.325 118.368C251.783 118.779 251.373 119.483 251.093 120.482C250.813 121.481 250.673 122.862 250.673 124.626C250.673 126.39 250.813 127.776 251.093 128.784C251.373 129.792 251.779 130.506 252.311 130.926C252.852 131.337 253.501 131.542 254.257 131.542Z" fill="#772BC7"/>
<path d="M132.616 185.152C131.693 185.152 130.867 185.04 130.136 184.816C129.411 184.587 128.795 184.232 128.288 183.752C127.781 183.267 127.395 182.64 127.128 181.872C126.861 181.104 126.728 180.181 126.728 179.104C126.728 177.723 126.963 176.581 127.432 175.68C127.907 174.779 128.592 174.109 129.488 173.672C130.384 173.229 131.469 173.008 132.744 173.008C133.197 173.008 133.635 173.035 134.056 173.088C134.477 173.136 134.891 173.211 135.296 173.312V175.096C134.907 174.995 134.512 174.92 134.112 174.872C133.717 174.824 133.312 174.8 132.896 174.8C132.027 174.8 131.301 174.941 130.72 175.224C130.139 175.507 129.701 175.963 129.408 176.592C129.12 177.216 128.976 178.043 128.976 179.072C128.976 180.133 129.123 180.979 129.416 181.608C129.709 182.232 130.139 182.68 130.704 182.952C131.275 183.224 131.976 183.36 132.808 183.36C133.224 183.36 133.635 183.328 134.04 183.264C134.445 183.2 134.864 183.101 135.296 182.968V184.752C134.912 184.875 134.491 184.971 134.032 185.04C133.573 185.115 133.101 185.152 132.616 185.152ZM138.93 185.152C138.061 185.152 137.381 184.928 136.89 184.48C136.405 184.027 136.162 183.427 136.162 182.68C136.162 181.88 136.434 181.256 136.978 180.808C137.527 180.355 138.41 180.083 139.626 179.992L141.642 179.8L141.866 181.016L139.826 181.2C139.266 181.253 138.863 181.387 138.618 181.6C138.373 181.813 138.25 182.107 138.25 182.48C138.25 182.859 138.362 183.149 138.586 183.352C138.81 183.555 139.141 183.656 139.578 183.656C139.866 183.656 140.157 183.6 140.45 183.488C140.743 183.376 141.01 183.189 141.25 182.928V179.496C141.25 179.053 141.178 178.707 141.034 178.456C140.895 178.2 140.671 178.021 140.362 177.92C140.058 177.813 139.661 177.76 139.17 177.76C138.839 177.76 138.463 177.789 138.042 177.848C137.621 177.907 137.21 177.997 136.81 178.12V176.512C137.221 176.389 137.669 176.296 138.154 176.232C138.645 176.168 139.103 176.136 139.53 176.136C140.389 176.136 141.095 176.245 141.65 176.464C142.21 176.677 142.626 177.04 142.898 177.552C143.17 178.059 143.306 178.749 143.306 179.624V185H141.57L141.418 184.096H141.314C141.047 184.453 140.703 184.72 140.282 184.896C139.866 185.067 139.415 185.152 138.93 185.152ZM145.306 185V176.272H147.034L147.202 177.416H147.306C147.572 176.989 147.916 176.675 148.338 176.472C148.759 176.269 149.215 176.168 149.706 176.168C149.834 176.168 149.956 176.173 150.074 176.184C150.196 176.195 150.306 176.208 150.402 176.224V178.136C150.274 178.115 150.138 178.101 149.994 178.096C149.855 178.085 149.716 178.08 149.578 178.08C149.316 178.08 149.05 178.117 148.778 178.192C148.506 178.261 148.25 178.368 148.01 178.512C147.77 178.656 147.57 178.837 147.41 179.056V185H145.306ZM154.527 185.152C153.887 185.152 153.298 185.008 152.759 184.72C152.226 184.427 151.799 183.963 151.479 183.328C151.159 182.688 150.999 181.851 150.999 180.816C150.999 179.792 151.175 178.933 151.527 178.24C151.879 177.541 152.399 177.016 153.087 176.664C153.775 176.307 154.623 176.128 155.631 176.128C155.834 176.128 156.034 176.136 156.231 176.152C156.434 176.168 156.618 176.189 156.783 176.216V172.072H158.887V185H157.119L156.983 184.072H156.879C156.623 184.392 156.298 184.653 155.903 184.856C155.508 185.053 155.05 185.152 154.527 185.152ZM155.119 183.416C155.423 183.416 155.724 183.355 156.023 183.232C156.322 183.109 156.575 182.917 156.783 182.656V177.872C156.628 177.84 156.447 177.813 156.239 177.792C156.031 177.765 155.826 177.752 155.623 177.752C154.796 177.752 154.172 177.976 153.751 178.424C153.33 178.872 153.119 179.613 153.119 180.648C153.119 181.363 153.202 181.92 153.367 182.32C153.538 182.72 153.772 183.003 154.071 183.168C154.375 183.333 154.724 183.416 155.119 183.416ZM165.074 185V173.16H167.234L173.258 182.392H172.858V173.16H174.874V185H172.714L166.69 175.768H167.09V185H165.074ZM179.943 185.152C179.372 185.152 178.866 185.043 178.423 184.824C177.986 184.605 177.642 184.256 177.391 183.776C177.14 183.291 177.015 182.648 177.015 181.848V176.272H179.111V181.72C179.111 182.323 179.239 182.741 179.495 182.976C179.756 183.211 180.095 183.328 180.511 183.328C180.719 183.328 180.935 183.299 181.159 183.24C181.388 183.176 181.607 183.08 181.815 182.952C182.023 182.819 182.207 182.653 182.367 182.456V176.272H184.471V185H182.727L182.583 184.096H182.487C182.146 184.443 181.756 184.707 181.319 184.888C180.882 185.064 180.423 185.152 179.943 185.152ZM186.556 185V176.272H188.3L188.444 177.2H188.548C188.868 176.848 189.236 176.584 189.652 176.408C190.073 176.227 190.532 176.136 191.028 176.136C191.534 176.136 191.988 176.243 192.388 176.456C192.788 176.669 193.102 177.016 193.332 177.496C193.561 177.971 193.676 178.6 193.676 179.384V185H191.62V179.56C191.62 178.957 191.502 178.541 191.268 178.312C191.038 178.077 190.732 177.96 190.348 177.96C190.15 177.96 189.948 177.992 189.74 178.056C189.532 178.115 189.334 178.211 189.148 178.344C188.961 178.477 188.798 178.648 188.66 178.856V185H186.556ZM196.58 185V179.56C196.58 178.957 196.457 178.541 196.212 178.312C195.966 178.077 195.649 177.96 195.26 177.96C195.057 177.96 194.846 177.992 194.628 178.056C194.409 178.12 194.201 178.227 194.004 178.376C193.806 178.52 193.636 178.715 193.492 178.96L193.044 177.528C193.449 177.021 193.9 176.664 194.396 176.456C194.897 176.243 195.39 176.136 195.876 176.136C196.414 176.136 196.894 176.245 197.316 176.464C197.737 176.677 198.068 177.027 198.308 177.512C198.553 177.997 198.676 178.643 198.676 179.448V185H196.58ZM203.809 185.16C203.286 185.16 202.753 185.123 202.209 185.048C201.665 184.973 201.155 184.859 200.681 184.704V172.072H202.785V177.144H202.889C203.15 176.835 203.475 176.589 203.865 176.408C204.254 176.227 204.699 176.136 205.201 176.136C205.809 176.136 206.369 176.283 206.881 176.576C207.393 176.869 207.801 177.333 208.105 177.968C208.414 178.603 208.569 179.435 208.569 180.464C208.569 182.016 208.171 183.187 207.377 183.976C206.587 184.765 205.398 185.16 203.809 185.16ZM203.985 183.536C204.795 183.536 205.409 183.312 205.825 182.864C206.241 182.416 206.449 181.675 206.449 180.64C206.449 179.92 206.363 179.36 206.193 178.96C206.022 178.56 205.785 178.28 205.481 178.12C205.182 177.96 204.835 177.88 204.441 177.88C204.137 177.88 203.838 177.936 203.545 178.048C203.251 178.16 202.998 178.333 202.785 178.568V183.384C202.945 183.427 203.129 183.464 203.337 183.496C203.545 183.523 203.761 183.536 203.985 183.536ZM214.481 185.16C213.452 185.16 212.598 185.005 211.921 184.696C211.249 184.381 210.748 183.891 210.417 183.224C210.086 182.557 209.921 181.693 209.921 180.632C209.921 179.645 210.073 178.819 210.377 178.152C210.686 177.485 211.129 176.984 211.705 176.648C212.281 176.307 212.977 176.136 213.793 176.136C214.577 176.136 215.238 176.307 215.777 176.648C216.321 176.984 216.732 177.491 217.009 178.168C217.286 178.845 217.425 179.688 217.425 180.696V181.264H211.105V180H215.825L215.457 180.176C215.457 179.515 215.393 178.989 215.265 178.6C215.137 178.211 214.948 177.933 214.697 177.768C214.446 177.597 214.137 177.512 213.769 177.512C213.401 177.512 213.086 177.595 212.825 177.76C212.564 177.925 212.364 178.203 212.225 178.592C212.092 178.981 212.025 179.507 212.025 180.168V180.984C212.025 181.613 212.113 182.117 212.289 182.496C212.47 182.869 212.761 183.139 213.161 183.304C213.561 183.464 214.097 183.544 214.769 183.544C215.105 183.544 215.457 183.517 215.825 183.464C216.193 183.411 216.572 183.336 216.961 183.24V184.848C216.513 184.96 216.086 185.04 215.681 185.088C215.281 185.136 214.881 185.16 214.481 185.16ZM218.978 185V176.272H220.706L220.874 177.416H220.978C221.244 176.989 221.588 176.675 222.01 176.472C222.431 176.269 222.887 176.168 223.378 176.168C223.506 176.168 223.628 176.173 223.746 176.184C223.868 176.195 223.978 176.208 224.074 176.224V178.136C223.946 178.115 223.81 178.101 223.666 178.096C223.527 178.085 223.388 178.08 223.25 178.08C222.988 178.08 222.722 178.117 222.45 178.192C222.178 178.261 221.922 178.368 221.682 178.512C221.442 178.656 221.242 178.837 221.082 179.056V185H218.978Z" fill="#3D2E87"/>
<path d="M132.521 205.051L133.98 206.437L134.957 207.77L133.151 209.072L132.185 207.749L131.282 205.817L130.368 207.749L129.402 209.072L127.607 207.77L128.573 206.437L130.032 205.051L128.069 204.778L126.315 204.211L127.008 202.1L128.751 202.678L130.547 203.654L130.169 201.638V200.032H132.395V201.638L132.017 203.654L133.812 202.678L135.555 202.1L136.248 204.211L134.495 204.778L132.521 205.051ZM143.082 205.051L144.542 206.437L145.518 207.77L143.712 209.072L142.746 207.749L141.843 205.817L140.93 207.749L139.964 209.072L138.168 207.77L139.134 206.437L140.594 205.051L138.63 204.778L136.877 204.211L137.57 202.1L139.313 202.678L141.108 203.654L140.73 201.638V200.032H142.956V201.638L142.578 203.654L144.374 202.678L146.117 202.1L146.81 204.211L145.056 204.778L143.082 205.051ZM153.644 205.051L155.103 206.437L156.08 207.77L154.274 209.072L153.308 207.749L152.405 205.817L151.491 207.749L150.525 209.072L148.73 207.77L149.696 206.437L151.155 205.051L149.192 204.778L147.438 204.211L148.131 202.1L149.874 202.678L151.67 203.654L151.292 201.638V200.032H153.518V201.638L153.14 203.654L154.935 202.678L156.678 202.1L157.371 204.211L155.618 204.778L153.644 205.051ZM164.205 205.051L165.665 206.437L166.641 207.77L164.835 209.072L163.869 207.749L162.966 205.817L162.053 207.749L161.087 209.072L159.291 207.77L160.257 206.437L161.717 205.051L159.753 204.778L158 204.211L158.693 202.1L160.436 202.678L162.231 203.654L161.853 201.638V200.032H164.079V201.638L163.701 203.654L165.497 202.678L167.24 202.1L167.933 204.211L166.179 204.778L164.205 205.051Z" fill="#3D2E87"/>
<path d="M187.521 205.051L188.98 206.437L189.957 207.77L188.151 209.072L187.185 207.749L186.282 205.817L185.368 207.749L184.402 209.072L182.607 207.77L183.573 206.437L185.032 205.051L183.069 204.778L181.315 204.211L182.008 202.1L183.751 202.678L185.547 203.654L185.169 201.638V200.032H187.395V201.638L187.017 203.654L188.812 202.678L190.555 202.1L191.248 204.211L189.495 204.778L187.521 205.051ZM198.082 205.051L199.542 206.437L200.518 207.77L198.712 209.072L197.746 207.749L196.843 205.817L195.93 207.749L194.964 209.072L193.168 207.77L194.134 206.437L195.594 205.051L193.63 204.778L191.877 204.211L192.57 202.1L194.313 202.678L196.108 203.654L195.73 201.638V200.032H197.956V201.638L197.578 203.654L199.374 202.678L201.117 202.1L201.81 204.211L200.056 204.778L198.082 205.051ZM208.644 205.051L210.103 206.437L211.08 207.77L209.274 209.072L208.308 207.749L207.405 205.817L206.491 207.749L205.525 209.072L203.73 207.77L204.696 206.437L206.155 205.051L204.192 204.778L202.438 204.211L203.131 202.1L204.874 202.678L206.67 203.654L206.292 201.638V200.032H208.518V201.638L208.14 203.654L209.935 202.678L211.678 202.1L212.371 204.211L210.618 204.778L208.644 205.051ZM219.205 205.051L220.665 206.437L221.641 207.77L219.835 209.072L218.869 207.749L217.966 205.817L217.053 207.749L216.087 209.072L214.291 207.77L215.257 206.437L216.717 205.051L214.753 204.778L213 204.211L213.693 202.1L215.436 202.678L217.231 203.654L216.853 201.638V200.032H219.079V201.638L218.701 203.654L220.497 202.678L222.24 202.1L222.933 204.211L221.179 204.778L219.205 205.051Z" fill="#3D2E87"/>
<path d="M242.521 205.051L243.98 206.437L244.957 207.77L243.151 209.072L242.185 207.749L241.282 205.817L240.368 207.749L239.402 209.072L237.607 207.77L238.573 206.437L240.032 205.051L238.069 204.778L236.315 204.211L237.008 202.1L238.751 202.678L240.547 203.654L240.169 201.638V200.032H242.395V201.638L242.017 203.654L243.812 202.678L245.555 202.1L246.248 204.211L244.495 204.778L242.521 205.051ZM253.082 205.051L254.542 206.437L255.518 207.77L253.712 209.072L252.746 207.749L251.843 205.817L250.93 207.749L249.964 209.072L248.168 207.77L249.134 206.437L250.594 205.051L248.63 204.778L246.877 204.211L247.57 202.1L249.313 202.678L251.108 203.654L250.73 201.638V200.032H252.956V201.638L252.578 203.654L254.374 202.678L256.117 202.1L256.81 204.211L255.056 204.778L253.082 205.051ZM263.644 205.051L265.103 206.437L266.08 207.77L264.274 209.072L263.308 207.749L262.405 205.817L261.491 207.749L260.525 209.072L258.73 207.77L259.696 206.437L261.155 205.051L259.192 204.778L257.438 204.211L258.131 202.1L259.874 202.678L261.67 203.654L261.292 201.638V200.032H263.518V201.638L263.14 203.654L264.935 202.678L266.678 202.1L267.371 204.211L265.618 204.778L263.644 205.051ZM274.205 205.051L275.665 206.437L276.641 207.77L274.835 209.072L273.869 207.749L272.966 205.817L272.053 207.749L271.087 209.072L269.291 207.77L270.257 206.437L271.717 205.051L269.753 204.778L268 204.211L268.693 202.1L270.436 202.678L272.231 203.654L271.853 201.638V200.032H274.079V201.638L273.701 203.654L275.497 202.678L277.24 202.1L277.933 204.211L276.179 204.778L274.205 205.051Z" fill="#3D2E87"/>
<path d="M294.812 217V203.444L296.03 204.599L291.284 207.875V204.694L296.03 201.407H298.224V217H294.812ZM300.22 217V215.173L304.514 209.818C304.955 209.258 305.309 208.761 305.575 208.327C305.841 207.893 306.03 207.497 306.142 207.14C306.261 206.776 306.32 206.423 306.32 206.08C306.32 205.373 306.096 204.851 305.648 204.515C305.207 204.172 304.483 204.001 303.475 204.001C302.859 204.001 302.25 204.057 301.648 204.169C301.046 204.274 300.507 204.421 300.031 204.61V201.838C300.339 201.726 300.706 201.628 301.133 201.544C301.567 201.453 302.019 201.383 302.488 201.334C302.957 201.285 303.408 201.26 303.842 201.26C305.76 201.26 307.213 201.621 308.2 202.342C309.187 203.056 309.68 204.193 309.68 205.754C309.68 206.279 309.61 206.804 309.47 207.329C309.337 207.847 309.106 208.393 308.777 208.967C308.455 209.534 308.018 210.154 307.465 210.826L304 215.047L303.905 214.186H310.426V217H300.22ZM315.551 217.2C314.83 217.2 314.126 217.154 313.44 217.063C312.761 216.972 312.117 216.839 311.508 216.664V214.112C312.103 214.28 312.747 214.413 313.44 214.511C314.133 214.609 314.791 214.658 315.414 214.658C316.534 214.658 317.35 214.473 317.861 214.102C318.372 213.731 318.627 213.188 318.627 212.474C318.627 211.788 318.382 211.263 317.892 210.899C317.409 210.528 316.59 210.343 315.435 210.343H313.157V207.76H314.921C316.041 207.76 316.842 207.581 317.325 207.224C317.815 206.867 318.06 206.367 318.06 205.723C318.06 205.093 317.836 204.617 317.388 204.295C316.947 203.966 316.247 203.801 315.288 203.801C314.707 203.801 314.109 203.85 313.493 203.948C312.884 204.046 312.313 204.19 311.781 204.379V201.827C312.117 201.715 312.502 201.617 312.936 201.533C313.37 201.442 313.822 201.376 314.291 201.334C314.76 201.285 315.215 201.26 315.656 201.26C317.539 201.26 318.953 201.624 319.898 202.352C320.85 203.073 321.326 204.095 321.326 205.418C321.326 206.356 321.056 207.147 320.517 207.791C319.985 208.435 319.247 208.859 318.302 209.062L318.312 208.894C319.439 209.062 320.307 209.468 320.916 210.112C321.525 210.749 321.83 211.606 321.83 212.684C321.83 213.622 321.599 214.431 321.137 215.11C320.682 215.782 319.989 216.3 319.058 216.664C318.127 217.021 316.958 217.2 315.551 217.2ZM323.053 213.797V211.939L328.471 201.46H331.747L326.392 211.949L326.014 211.172H335.684V213.797H323.053ZM330.613 217V211.172L330.959 206.71H333.679V217H330.613Z" fill="#3D2E87"/>
<path d="M130.384 234.008C131.045 234.008 131.648 234.115 132.192 234.328C132.736 234.536 133.205 234.867 133.6 235.32C133.995 235.773 134.299 236.363 134.512 237.088C134.725 237.808 134.832 238.677 134.832 239.696C134.832 241.163 134.619 242.373 134.192 243.328C133.765 244.283 133.144 244.992 132.328 245.456C131.517 245.92 130.528 246.152 129.36 246.152C128.933 246.152 128.523 246.125 128.128 246.072C127.733 246.019 127.368 245.925 127.032 245.792V244.128C127.373 244.256 127.733 244.349 128.112 244.408C128.496 244.467 128.88 244.496 129.264 244.496C130.037 244.496 130.683 244.347 131.2 244.048C131.717 243.749 132.104 243.288 132.36 242.664C132.616 242.035 132.744 241.229 132.744 240.248V239.392C132.744 238.656 132.688 238.043 132.576 237.552C132.464 237.056 132.304 236.667 132.096 236.384C131.888 236.096 131.637 235.891 131.344 235.768C131.056 235.645 130.731 235.584 130.368 235.584C129.989 235.584 129.651 235.653 129.352 235.792C129.059 235.931 128.827 236.149 128.656 236.448C128.485 236.741 128.4 237.12 128.4 237.584C128.4 238.048 128.488 238.429 128.664 238.728C128.845 239.027 129.099 239.248 129.424 239.392C129.755 239.531 130.141 239.6 130.584 239.6C130.877 239.6 131.176 239.565 131.48 239.496C131.789 239.427 132.083 239.315 132.36 239.16C132.643 239.005 132.891 238.808 133.104 238.568V240.12C132.784 240.451 132.357 240.709 131.824 240.896C131.296 241.077 130.749 241.168 130.184 241.168C129.464 241.168 128.821 241.043 128.256 240.792C127.696 240.541 127.253 240.157 126.928 239.64C126.608 239.117 126.448 238.453 126.448 237.648C126.448 236.875 126.611 236.216 126.936 235.672C127.261 235.128 127.717 234.715 128.304 234.432C128.896 234.149 129.589 234.008 130.384 234.008ZM135.672 247.92L139.416 233.072H141.496L137.744 247.92H135.672ZM142.104 246V244.848L145.416 240.616C145.773 240.163 146.056 239.757 146.264 239.4C146.477 239.043 146.629 238.715 146.72 238.416C146.816 238.117 146.864 237.824 146.864 237.536C146.864 236.917 146.68 236.467 146.312 236.184C145.949 235.896 145.368 235.752 144.568 235.752C144.104 235.752 143.645 235.795 143.192 235.88C142.744 235.96 142.333 236.072 141.96 236.216V234.456C142.194 234.365 142.469 234.288 142.784 234.224C143.098 234.155 143.429 234.101 143.776 234.064C144.122 234.027 144.458 234.008 144.784 234.008C146.154 234.008 147.197 234.275 147.912 234.808C148.626 235.336 148.984 236.179 148.984 237.336C148.984 237.747 148.928 238.152 148.816 238.552C148.709 238.952 148.53 239.376 148.28 239.824C148.029 240.267 147.688 240.755 147.256 241.288L144.48 244.776L144.4 244.216H149.576V246H142.104ZM152.96 246V235.472L153.728 236.152L150.192 238.624V236.6L153.728 234.12H155.104V246H152.96Z" fill="#3D2E87"/>
<path d="M172.332 245L169.007 234.64H171.387L174.313 244.069H173.823L176.798 234.64H179.01L175.692 245H172.332ZM179.952 245V234.64H182.227V245H179.952ZM186.685 245.133C186.186 245.133 185.684 245.093 185.18 245.014C184.681 244.939 184.219 244.832 183.794 244.692V242.844C184.088 242.942 184.401 243.026 184.732 243.096C185.063 243.161 185.395 243.213 185.726 243.25C186.062 243.287 186.379 243.306 186.678 243.306C187.373 243.306 187.866 243.201 188.155 242.991C188.444 242.776 188.589 242.478 188.589 242.095C188.589 241.773 188.482 241.521 188.267 241.339C188.057 241.157 187.663 240.991 187.084 240.842L186.3 240.639C185.395 240.41 184.709 240.056 184.242 239.575C183.78 239.09 183.549 238.45 183.549 237.657C183.549 236.668 183.906 235.895 184.62 235.34C185.339 234.785 186.419 234.507 187.861 234.507C188.328 234.507 188.771 234.535 189.191 234.591C189.616 234.642 189.991 234.715 190.318 234.808V236.656C189.987 236.553 189.618 236.474 189.212 236.418C188.806 236.362 188.398 236.334 187.987 236.334C187.446 236.334 187.016 236.385 186.699 236.488C186.382 236.586 186.153 236.726 186.013 236.908C185.878 237.09 185.81 237.3 185.81 237.538C185.81 237.841 185.903 238.079 186.09 238.252C186.277 238.425 186.627 238.581 187.14 238.721L187.917 238.924C188.589 239.087 189.142 239.304 189.576 239.575C190.01 239.841 190.33 240.17 190.535 240.562C190.745 240.949 190.85 241.409 190.85 241.941C190.85 242.604 190.684 243.175 190.353 243.656C190.026 244.132 189.553 244.498 188.932 244.755C188.311 245.007 187.562 245.133 186.685 245.133ZM191.096 245L194.442 234.64H197.753L201.099 245H198.859L195.961 235.634H196.199L193.308 245H191.096ZM193.42 242.235L193.91 240.422H198.278L198.761 242.235H193.42Z" fill="#3D2E87"/>
<defs>
<filter id="filter0_d_38_210" x="0" y="49" width="348" height="240" filterUnits="userSpaceOnUse" color-interpolation-filters="sRGB">
<feFlood flood-opacity="0" result="BackgroundImageFix"/>
<feColorMatrix in="SourceAlpha" type="matrix" values="0 0 0 0 0 0 0 0 0 0 0 0 0 0 0 0 0 0 127 0" result="hardAlpha"/>
<feOffset dx="9" dy="14"/>
<feGaussianBlur stdDeviation="15"/>
<feComposite in2="hardAlpha" operator="out"/>
<feColorMatrix type="matrix" values="0 0 0 0 0 0 0 0 0 0 0 0 0 0 0 0 0 0 0.25 0"/>
<feBlend mode="normal" in2="BackgroundImageFix" result="effect1_dropShadow_38_210"/>
<feBlend mode="normal" in="SourceGraphic" in2="effect1_dropShadow_38_210" result="shape"/>
</filter>
<filter id="filter1_d_38_210" x="36" y="22" width="348" height="275" filterUnits="userSpaceOnUse" color-interpolation-filters="sRGB">
<feFlood flood-opacity="0" result="BackgroundImageFix"/>
<feColorMatrix in="SourceAlpha" type="matrix" values="0 0 0 0 0 0 0 0 0 0 0 0 0 0 0 0 0 0 127 0" result="hardAlpha"/>
<feOffset dx="12" dy="4"/>
<feGaussianBlur stdDeviation="15"/>
<feComposite in2="hardAlpha" operator="out"/>
<feColorMatrix type="matrix" values="0 0 0 0 0 0 0 0 0 0 0 0 0 0 0 0 0 0 0.25 0"/>
<feBlend mode="normal" in2="BackgroundImageFix" result="effect1_dropShadow_38_210"/>
<feBlend mode="normal" in="SourceGraphic" in2="effect1_dropShadow_38_210" result="shape"/>
</filter>
<filter id="filter2_d_38_210" x="59" y="0" width="348" height="310" filterUnits="userSpaceOnUse" color-interpolation-filters="sRGB">
<feFlood flood-opacity="0" result="BackgroundImageFix"/>
<feColorMatrix in="SourceAlpha" type="matrix" values="0 0 0 0 0 0 0 0 0 0 0 0 0 0 0 0 0 0 127 0" result="hardAlpha"/>
<feOffset/>
<feGaussianBlur stdDeviation="15"/>
<feComposite in2="hardAlpha" operator="out"/>
<feColorMatrix type="matrix" values="0 0 0 0 0 0 0 0 0 0 0 0 0 0 0 0 0 0 0.25 0"/>
<feBlend mode="normal" in2="BackgroundImageFix" result="effect1_dropShadow_38_210"/>
<feBlend mode="normal" in="SourceGraphic" in2="effect1_dropShadow_38_210" result="shape"/>
</filter>
<linearGradient id="paint0_linear_38_210" x1="233" y1="30" x2="233" y2="280" gradientUnits="userSpaceOnUse">
<stop stop-color="#FBFAFC"/>
<stop offset="1" stop-color="#E4D5F4"/>
</linearGradient>
</defs>
</svg>
