<?xml version="1.0" standalone="no"?>
<!DOCTYPE svg PUBLIC "-//W3C//DTD SVG 20010904//EN"
 "http://www.w3.org/TR/2001/REC-SVG-20010904/DTD/svg10.dtd">
<svg version="1.0" xmlns="http://www.w3.org/2000/svg"
 width="290.000000pt" height="297.000000pt" viewBox="0 0 290.000000 297.000000"
 preserveAspectRatio="xMidYMid meet">

<g transform="translate(0.000000,297.000000) scale(0.100000,-0.100000)"
fill="#000000" stroke="none">
<path d="M240 2507 c0 -15 9 -44 19 -65 11 -20 228 -245 484 -500 412 -412
465 -462 477 -447 12 14 -41 71 -467 498 -265 265 -488 496 -497 512 l-15 30
-1 -28z"/>
<path d="M2651 2510 c-1 -8 -222 -236 -493 -507 -435 -435 -490 -494 -478
-508 12 -15 66 36 482 452 367 367 472 477 484 510 9 23 14 47 11 55 -4 10 -6
9 -6 -2z"/>
<path d="M970 814 c-261 -261 -487 -482 -502 -490 -39 -20 -117 -18 -155 6
-18 10 -41 36 -52 57 -20 37 -20 37 -21 10 0 -41 36 -105 73 -127 36 -22 115
-27 150 -9 12 6 239 228 505 493 l482 481 483 -481 c265 -265 492 -487 504
-493 12 -6 43 -11 70 -11 81 0 138 48 149 126 l6 39 -21 -33 c-11 -18 -35 -41
-53 -52 -39 -24 -117 -27 -156 -6 -15 8 -241 229 -502 490 -261 262 -477 476
-480 476 -3 0 -219 -214 -480 -476z"/>
</g>
</svg>
