<svg width="32" height="32" viewBox="0 0 32 32" fill="none" xmlns="http://www.w3.org/2000/svg">
<path fill-rule="evenodd" clip-rule="evenodd" d="M1.44972 29.5452L1.45504 29.5505C1.59629 29.6928 1.76427 29.8057 1.94932 29.8829C2.13438 29.96 2.33285 29.9998 2.53334 30C2.70204 29.9999 2.86958 29.9721 3.02927 29.9177C3.02927 29.9177 3.89842 29.6736 4.42861 29.4085C5.40821 28.9187 5.12755 28.3558 5.07924 28.1711C5.03093 27.9864 4.91841 27.786 4.42861 27.786C3.86448 27.786 3.21417 27.786 3.21417 27.786L5.74044 20.339L18.5216 7.55779C18.5216 7.55779 21.0626 8.16348 22.101 9.32663C22.9919 10.3246 23.4424 12.4786 23.4424 12.4786L17.4265 18.4946L11.4105 24.5105C10.5526 23.6941 8.6409 21.9635 7.85722 21.5717C7.07354 21.1798 6.38782 22.0615 6.87762 22.5513L10.0694 25.4605L11.7236 26.9683L28.4075 10.2844C29.4274 9.26443 30.0004 7.88102 30.0003 6.43856C30.0002 4.9961 29.4272 3.61275 28.4071 2.59282C27.3871 1.57289 26.0037 0.999937 24.5613 1C23.1188 1.00006 21.7354 1.57314 20.7155 2.59316L4.03165 19.277L1.08255 27.9711C0.989654 28.2415 0.974827 28.5325 1.03977 28.8109C1.10471 29.0893 1.24679 29.3438 1.44972 29.5452ZM24.5586 2.96877C23.6381 2.967 22.7544 3.33008 22.101 3.9785L19.9069 6.17244C19.9069 6.17244 22.4053 6.73313 23.4424 7.85722C24.3746 8.86757 24.8278 11.0933 24.8278 11.0933L27.0217 8.89935C27.6701 8.24597 28.0332 7.36225 28.0315 6.44172C28.0297 5.52119 27.6633 4.63885 27.0124 3.98793C26.3615 3.33701 25.4792 2.97054 24.5586 2.96877Z" fill="#3D2E87"/>
</svg>
