<svg width="109" height="16" viewBox="0 0 109 16" fill="none" xmlns="http://www.w3.org/2000/svg">
<path d="M5.95166 5.30196L7.90016 1.37796C7.95688 1.2644 8.04411 1.16888 8.15208 1.10212C8.26004 1.03536 8.38447 1 8.51141 1C8.63835 1 8.76278 1.03536 8.87074 1.10212C8.97871 1.16888 9.06594 1.2644 9.12266 1.37796L11.0712 5.30196L15.4272 5.93496C15.5528 5.95238 15.671 6.00478 15.7683 6.08616C15.8656 6.16755 15.9381 6.27466 15.9774 6.39525C16.0167 6.51584 16.0214 6.64507 15.9908 6.76817C15.9602 6.89127 15.8956 7.0033 15.8044 7.09146L12.6529 10.144L13.3969 14.4565C13.4922 15.01 12.9072 15.4315 12.4069 15.1705L8.51141 13.1335L4.61516 15.1705C4.11566 15.4322 3.53066 15.01 3.62591 14.4557L4.36991 10.1432L1.21841 7.09071C1.12765 7.00249 1.06346 6.89058 1.03313 6.76769C1.00281 6.64481 1.00756 6.51588 1.04686 6.39557C1.08616 6.27525 1.15842 6.16837 1.25544 6.08708C1.35245 6.00579 1.47032 5.95334 1.59566 5.93571L5.95166 5.30196Z" fill="#3D2E87" stroke="#3D2E87" stroke-width="1.5" stroke-linecap="round" stroke-linejoin="round"/>
<path d="M28.949 5.30196L30.8975 1.37796C30.9542 1.2644 31.0414 1.16888 31.1494 1.10212C31.2574 1.03536 31.3818 1 31.5087 1C31.6357 1 31.7601 1.03536 31.8681 1.10212C31.976 1.16888 32.0633 1.2644 32.12 1.37796L34.0685 5.30196L38.4245 5.93496C38.5501 5.95238 38.6683 6.00478 38.7656 6.08616C38.8629 6.16755 38.9354 6.27466 38.9747 6.39525C39.014 6.51584 39.0187 6.64507 38.9881 6.76817C38.9575 6.89127 38.8929 7.0033 38.8017 7.09146L35.6502 10.144L36.3942 14.4565C36.4895 15.01 35.9045 15.4315 35.4042 15.1705L31.5087 13.1335L27.6125 15.1705C27.113 15.4322 26.528 15.01 26.6232 14.4557L27.3672 10.1432L24.2157 7.09071C24.125 7.00249 24.0608 6.89058 24.0304 6.76769C24.0001 6.64481 24.0049 6.51588 24.0442 6.39557C24.0835 6.27525 24.1557 6.16837 24.2527 6.08708C24.3498 6.00579 24.4676 5.95334 24.593 5.93571L28.949 5.30196Z" fill="#3D2E87" stroke="#3D2E87" stroke-width="1.5" stroke-linecap="round" stroke-linejoin="round"/>
<path d="M51.9463 5.30196L53.8948 1.37796C53.9515 1.2644 54.0387 1.16888 54.1467 1.10212C54.2547 1.03536 54.3791 1 54.506 1C54.633 1 54.7574 1.03536 54.8654 1.10212C54.9733 1.16888 55.0606 1.2644 55.1173 1.37796L57.0658 5.30196L61.4218 5.93496C61.5474 5.95238 61.6656 6.00478 61.7629 6.08616C61.8602 6.16755 61.9327 6.27466 61.972 6.39525C62.0114 6.51584 62.016 6.64507 61.9854 6.76817C61.9548 6.89127 61.8902 7.0033 61.799 7.09146L58.6475 10.144L59.3915 14.4565C59.4868 15.01 58.9018 15.4315 58.4015 15.1705L54.506 13.1335L50.6098 15.1705C50.1103 15.4322 49.5253 15.01 49.6205 14.4557L50.3645 10.1432L47.213 7.09071C47.1223 7.00249 47.0581 6.89058 47.0278 6.76769C46.9974 6.64481 47.0022 6.51588 47.0415 6.39557C47.0808 6.27525 47.1531 6.16837 47.2501 6.08708C47.3471 6.00579 47.465 5.95334 47.5903 5.93571L51.9463 5.30196Z" fill="#3D2E87" stroke="#3D2E87" stroke-width="1.5" stroke-linecap="round" stroke-linejoin="round"/>
<path d="M74.9436 5.30196L76.8921 1.37796C76.9488 1.2644 77.0361 1.16888 77.144 1.10212C77.252 1.03536 77.3764 1 77.5034 1C77.6303 1 77.7547 1.03536 77.8627 1.10212C77.9706 1.16888 78.0579 1.2644 78.1146 1.37796L80.0631 5.30196L84.4191 5.93496C84.5447 5.95238 84.663 6.00478 84.7603 6.08616C84.8575 6.16755 84.93 6.27466 84.9693 6.39525C85.0087 6.51584 85.0133 6.64507 84.9827 6.76817C84.9521 6.89127 84.8876 7.0033 84.7964 7.09146L81.6449 10.144L82.3889 14.4565C82.4841 15.01 81.8991 15.4315 81.3989 15.1705L77.5034 13.1335L73.6071 15.1705C73.1076 15.4322 72.5226 15.01 72.6179 14.4557L73.3619 10.1432L70.2104 7.09071C70.1196 7.00249 70.0554 6.89058 70.0251 6.76769C69.9947 6.64481 69.9995 6.51588 70.0388 6.39557C70.0781 6.27525 70.1504 6.16837 70.2474 6.08708C70.3444 6.00579 70.4623 5.95334 70.5876 5.93571L74.9436 5.30196Z" fill="#3D2E87" stroke="#3D2E87" stroke-width="1.5" stroke-linecap="round" stroke-linejoin="round"/>
<path d="M97.9409 5.30196L99.8894 1.37796C99.9461 1.2644 100.033 1.16888 100.141 1.10212C100.249 1.03536 100.374 1 100.501 1C100.628 1 100.752 1.03536 100.86 1.10212C100.968 1.16888 101.055 1.2644 101.112 1.37796L103.06 5.30196L107.416 5.93496C107.542 5.95238 107.66 6.00478 107.758 6.08616C107.855 6.16755 107.927 6.27466 107.967 6.39525C108.006 6.51584 108.011 6.64507 107.98 6.76817C107.949 6.89127 107.885 7.0033 107.794 7.09146L104.642 10.144L105.386 14.4565C105.481 15.01 104.896 15.4315 104.396 15.1705L100.501 13.1335L96.6044 15.1705C96.1049 15.4322 95.5199 15.01 95.6152 14.4557L96.3592 10.1432L93.2077 7.09071C93.1169 7.00249 93.0527 6.89058 93.0224 6.76769C92.9921 6.64481 92.9968 6.51588 93.0361 6.39557C93.0754 6.27525 93.1477 6.16837 93.2447 6.08708C93.3417 6.00579 93.4596 5.95334 93.5849 5.93571L97.9409 5.30196Z" fill="#3D2E87" stroke="#3D2E87" stroke-width="1.5" stroke-linecap="round" stroke-linejoin="round"/>
</svg>
