<svg width="374" height="330" viewBox="0 0 374 330" fill="none" xmlns="http://www.w3.org/2000/svg">
<g filter="url(#filter0_d_38_233)">
<rect x="41" y="40" width="354" height="250" rx="24" fill="url(#paint0_linear_38_233)"/>
<g filter="url(#filter1_d_38_233)">
<path d="M373 183.004C364.826 181.986 355.735 182.343 349.5 186.5C336 195.5 322.5 194.5 311 177.5C299.5 160.5 287.5 162.5 268 169C248.5 175.5 244.5 161.5 231 139C217.5 116.5 213.5 131 200 154C186.5 177 189 179 159.5 174.5C130 170 131 181.5 116.5 189.5C102 197.5 85 183 71 181C55.9477 178.85 49.6499 184.166 41 187.726" stroke="#6C26B1" stroke-width="3"/>
</g>
<circle cx="219" cy="128" r="6" fill="#6C26B1"/>
<path d="M87.029 89.171C85.763 89.171 84.659 88.925 83.717 88.433C82.781 87.941 82.052 87.191 81.53 86.183C81.014 85.169 80.756 83.888 80.756 82.34C80.756 80.792 81.014 79.514 81.53 78.506C82.052 77.492 82.781 76.739 83.717 76.247C84.659 75.755 85.763 75.509 87.029 75.509C88.295 75.509 89.396 75.758 90.332 76.256C91.274 76.748 92.003 77.501 92.519 78.515C93.041 79.523 93.302 80.798 93.302 82.34C93.302 83.882 93.041 85.16 92.519 86.174C92.003 87.182 91.274 87.935 90.332 88.433C89.39 88.925 88.289 89.171 87.029 89.171ZM87.029 86.813C87.713 86.813 88.298 86.666 88.784 86.372C89.276 86.072 89.651 85.598 89.909 84.95C90.173 84.302 90.305 83.453 90.305 82.403C90.305 81.311 90.173 80.435 89.909 79.775C89.645 79.109 89.267 78.626 88.775 78.326C88.289 78.02 87.707 77.867 87.029 77.867C86.351 77.867 85.766 78.014 85.274 78.308C84.788 78.602 84.413 79.073 84.149 79.721C83.885 80.369 83.753 81.221 83.753 82.277C83.753 83.375 83.882 84.257 84.14 84.923C84.404 85.583 84.779 86.063 85.265 86.363C85.757 86.663 86.345 86.813 87.029 86.813ZM98.4455 89.171C97.7915 89.171 97.2095 89.045 96.6995 88.793C96.1895 88.535 95.7875 88.124 95.4935 87.56C95.1995 86.996 95.0525 86.249 95.0525 85.319V79.154H97.9235V85.121C97.9235 85.715 98.0465 86.126 98.2925 86.354C98.5445 86.582 98.8715 86.696 99.2735 86.696C99.4715 86.696 99.6785 86.669 99.8945 86.615C100.117 86.555 100.327 86.465 100.525 86.345C100.723 86.225 100.897 86.075 101.047 85.895V79.154H103.909V89H101.551L101.353 88.01H101.227C100.855 88.388 100.432 88.676 99.9575 88.874C99.4835 89.072 98.9795 89.171 98.4455 89.171ZM110.591 89.18C109.403 89.18 108.488 88.886 107.846 88.298C107.21 87.704 106.892 86.765 106.892 85.481V79.154L107.414 75.68H109.754V85.031C109.754 85.709 109.88 86.177 110.132 86.435C110.39 86.693 110.804 86.822 111.374 86.822C111.53 86.822 111.689 86.813 111.851 86.795C112.019 86.771 112.205 86.741 112.409 86.705V88.973C112.151 89.027 111.86 89.075 111.536 89.117C111.218 89.159 110.903 89.18 110.591 89.18ZM105.29 81.413V79.154H112.346V81.413H105.29ZM118.358 89.189C117.26 89.189 116.33 89.003 115.568 88.631C114.812 88.259 114.236 87.698 113.84 86.948C113.444 86.192 113.246 85.241 113.246 84.095C113.246 82.937 113.456 81.983 113.876 81.233C114.302 80.477 114.917 79.916 115.721 79.55C116.531 79.184 117.509 79.001 118.655 79.001C119.051 79.001 119.432 79.019 119.798 79.055C120.17 79.091 120.521 79.148 120.851 79.226V81.494C120.539 81.434 120.236 81.389 119.942 81.359C119.648 81.329 119.351 81.314 119.051 81.314C118.391 81.314 117.851 81.407 117.431 81.593C117.011 81.779 116.702 82.076 116.504 82.484C116.306 82.886 116.207 83.414 116.207 84.068C116.207 84.746 116.303 85.292 116.495 85.706C116.693 86.114 116.984 86.411 117.368 86.597C117.752 86.783 118.232 86.876 118.808 86.876C119.12 86.876 119.435 86.849 119.753 86.795C120.071 86.741 120.437 86.657 120.851 86.543V88.811C120.491 88.931 120.098 89.024 119.672 89.09C119.246 89.156 118.808 89.189 118.358 89.189ZM126.586 89.189C125.602 89.189 124.75 89.003 124.03 88.631C123.316 88.253 122.764 87.689 122.374 86.939C121.984 86.183 121.789 85.238 121.789 84.104C121.789 82.958 121.978 82.007 122.356 81.251C122.74 80.495 123.289 79.931 124.003 79.559C124.723 79.187 125.584 79.001 126.586 79.001C127.588 79.001 128.446 79.19 129.16 79.568C129.88 79.94 130.429 80.504 130.807 81.26C131.191 82.01 131.383 82.952 131.383 84.086C131.383 85.226 131.188 86.174 130.798 86.93C130.408 87.686 129.853 88.253 129.133 88.631C128.419 89.003 127.57 89.189 126.586 89.189ZM126.586 87.011C126.988 87.011 127.33 86.924 127.612 86.75C127.9 86.576 128.119 86.279 128.269 85.859C128.419 85.433 128.494 84.851 128.494 84.113C128.494 83.357 128.419 82.766 128.269 82.34C128.119 81.914 127.9 81.614 127.612 81.44C127.33 81.26 126.988 81.17 126.586 81.17C126.184 81.17 125.839 81.257 125.551 81.431C125.269 81.605 125.053 81.905 124.903 82.331C124.753 82.751 124.678 83.333 124.678 84.077C124.678 84.833 124.753 85.424 124.903 85.85C125.053 86.276 125.269 86.576 125.551 86.75C125.839 86.924 126.184 87.011 126.586 87.011ZM133.067 89V79.154H135.434L135.623 80.162H135.758C136.106 79.778 136.511 79.49 136.973 79.298C137.441 79.1 137.957 79.001 138.521 79.001C139.103 79.001 139.625 79.127 140.087 79.379C140.555 79.625 140.921 80.027 141.185 80.585C141.455 81.137 141.59 81.869 141.59 82.781V89H138.782V83.024C138.782 82.436 138.671 82.031 138.449 81.809C138.233 81.581 137.933 81.467 137.549 81.467C137.357 81.467 137.159 81.497 136.955 81.557C136.757 81.617 136.568 81.707 136.388 81.827C136.214 81.947 136.061 82.1 135.929 82.286V89H133.067ZM144.38 89V83.024C144.38 82.436 144.26 82.031 144.02 81.809C143.78 81.581 143.471 81.467 143.093 81.467C142.883 81.467 142.673 81.5 142.463 81.566C142.259 81.626 142.064 81.722 141.878 81.854C141.692 81.986 141.53 82.157 141.392 82.367L140.825 80.504C141.263 79.97 141.758 79.586 142.31 79.352C142.862 79.118 143.417 79.001 143.975 79.001C144.605 79.001 145.166 79.127 145.658 79.379C146.15 79.631 146.537 80.042 146.819 80.612C147.101 81.182 147.242 81.935 147.242 82.871V89H144.38ZM154.268 89.189C153.032 89.189 152.015 89.012 151.217 88.658C150.419 88.304 149.825 87.749 149.435 86.993C149.051 86.237 148.859 85.262 148.859 84.068C148.859 82.982 149.036 82.061 149.39 81.305C149.75 80.549 150.269 79.976 150.947 79.586C151.631 79.196 152.459 79.001 153.431 79.001C154.361 79.001 155.144 79.199 155.78 79.595C156.416 79.985 156.896 80.564 157.22 81.332C157.544 82.1 157.706 83.042 157.706 84.158V84.905H150.497V83.258H155.492L155.033 83.429C155.033 82.781 154.973 82.265 154.853 81.881C154.733 81.497 154.55 81.224 154.304 81.062C154.064 80.9 153.764 80.819 153.404 80.819C153.038 80.819 152.729 80.9 152.477 81.062C152.231 81.224 152.042 81.497 151.91 81.881C151.784 82.259 151.721 82.772 151.721 83.42V84.572C151.721 85.178 151.808 85.661 151.982 86.021C152.162 86.375 152.465 86.63 152.891 86.786C153.323 86.942 153.917 87.02 154.673 87.02C155.057 87.02 155.459 86.993 155.879 86.939C156.305 86.879 156.731 86.801 157.157 86.705V88.856C156.635 88.976 156.137 89.06 155.663 89.108C155.195 89.162 154.73 89.189 154.268 89.189ZM167.285 89.171C166.643 89.171 165.998 89.12 165.35 89.018C164.708 88.922 164.114 88.784 163.568 88.604V86.228C163.946 86.354 164.348 86.462 164.774 86.552C165.2 86.636 165.626 86.702 166.052 86.75C166.484 86.798 166.892 86.822 167.276 86.822C168.17 86.822 168.803 86.687 169.175 86.417C169.547 86.141 169.733 85.757 169.733 85.265C169.733 84.851 169.595 84.527 169.319 84.293C169.049 84.059 168.542 83.846 167.798 83.654L166.79 83.393C165.626 83.099 164.744 82.643 164.144 82.025C163.55 81.401 163.253 80.579 163.253 79.559C163.253 78.287 163.712 77.294 164.63 76.58C165.554 75.866 166.943 75.509 168.797 75.509C169.397 75.509 169.967 75.545 170.507 75.617C171.053 75.683 171.536 75.776 171.956 75.896V78.272C171.53 78.14 171.056 78.038 170.534 77.966C170.012 77.894 169.487 77.858 168.959 77.858C168.263 77.858 167.711 77.924 167.303 78.056C166.895 78.182 166.601 78.362 166.421 78.596C166.247 78.83 166.16 79.1 166.16 79.406C166.16 79.796 166.28 80.102 166.52 80.324C166.76 80.546 167.21 80.747 167.87 80.927L168.869 81.188C169.733 81.398 170.444 81.677 171.002 82.025C171.56 82.367 171.971 82.79 172.235 83.294C172.505 83.792 172.64 84.383 172.64 85.067C172.64 85.919 172.427 86.654 172.001 87.272C171.581 87.884 170.972 88.355 170.174 88.685C169.376 89.009 168.413 89.171 167.285 89.171ZM178.477 89.18C177.289 89.18 176.374 88.886 175.732 88.298C175.096 87.704 174.778 86.765 174.778 85.481V79.154L175.3 75.68H177.64V85.031C177.64 85.709 177.766 86.177 178.018 86.435C178.276 86.693 178.69 86.822 179.26 86.822C179.416 86.822 179.575 86.813 179.737 86.795C179.905 86.771 180.091 86.741 180.295 86.705V88.973C180.037 89.027 179.746 89.075 179.422 89.117C179.104 89.159 178.789 89.18 178.477 89.18ZM173.176 81.413V79.154H180.232V81.413H173.176ZM184.379 89.18C183.371 89.18 182.585 88.919 182.021 88.397C181.463 87.869 181.184 87.182 181.184 86.336C181.184 85.406 181.505 84.68 182.147 84.158C182.795 83.636 183.839 83.327 185.279 83.231L187.349 83.06L187.655 84.644L185.567 84.815C185.015 84.857 184.616 84.983 184.37 85.193C184.13 85.403 184.01 85.691 184.01 86.057C184.01 86.417 184.121 86.696 184.343 86.894C184.565 87.086 184.889 87.182 185.315 87.182C185.579 87.182 185.849 87.137 186.125 87.047C186.401 86.951 186.653 86.789 186.881 86.561V82.961C186.881 82.511 186.806 82.157 186.656 81.899C186.512 81.641 186.275 81.458 185.945 81.35C185.621 81.236 185.186 81.179 184.64 81.179C184.262 81.179 183.833 81.212 183.353 81.278C182.873 81.338 182.414 81.437 181.976 81.575V79.415C182.456 79.277 182.981 79.175 183.551 79.109C184.127 79.037 184.661 79.001 185.153 79.001C186.197 79.001 187.052 79.13 187.718 79.388C188.39 79.646 188.885 80.078 189.203 80.684C189.521 81.284 189.68 82.103 189.68 83.141V89H187.322L187.124 88.019H186.989C186.695 88.421 186.32 88.715 185.864 88.901C185.408 89.087 184.913 89.18 184.379 89.18ZM196.126 89.18C194.938 89.18 194.023 88.886 193.381 88.298C192.745 87.704 192.427 86.765 192.427 85.481V79.154L192.949 75.68H195.289V85.031C195.289 85.709 195.415 86.177 195.667 86.435C195.925 86.693 196.339 86.822 196.909 86.822C197.065 86.822 197.224 86.813 197.386 86.795C197.554 86.771 197.74 86.741 197.944 86.705V88.973C197.686 89.027 197.395 89.075 197.071 89.117C196.753 89.159 196.438 89.18 196.126 89.18ZM190.825 81.413V79.154H197.881V81.413H190.825ZM202.015 89.189C201.451 89.189 200.902 89.153 200.368 89.081C199.84 89.009 199.342 88.901 198.874 88.757V86.651C199.348 86.795 199.849 86.906 200.377 86.984C200.905 87.056 201.439 87.092 201.979 87.092C202.627 87.092 203.083 87.008 203.347 86.84C203.617 86.666 203.752 86.426 203.752 86.12C203.752 85.874 203.686 85.688 203.554 85.562C203.422 85.436 203.191 85.34 202.861 85.274L201.259 84.986C200.335 84.812 199.663 84.491 199.243 84.023C198.823 83.555 198.613 82.928 198.613 82.142C198.613 81.2 198.991 80.441 199.747 79.865C200.509 79.289 201.676 79.001 203.248 79.001C203.728 79.001 204.193 79.028 204.643 79.082C205.099 79.136 205.51 79.211 205.876 79.307V81.413C205.492 81.305 205.084 81.224 204.652 81.17C204.22 81.116 203.779 81.089 203.329 81.089C202.783 81.089 202.363 81.137 202.069 81.233C201.775 81.323 201.568 81.443 201.448 81.593C201.334 81.743 201.277 81.905 201.277 82.079C201.277 82.289 201.343 82.46 201.475 82.592C201.607 82.724 201.835 82.826 202.159 82.898L203.761 83.186C204.637 83.348 205.297 83.648 205.741 84.086C206.191 84.518 206.416 85.163 206.416 86.021C206.416 86.999 206.032 87.773 205.264 88.343C204.502 88.907 203.419 89.189 202.015 89.189Z" fill="#3D2E87"/>
<path d="M81.352 113V101.16H82.648V111.872H88.48V113H81.352ZM91.9225 113.144C91.1065 113.144 90.4638 112.933 89.9945 112.512C89.5305 112.091 89.2985 111.512 89.2985 110.776C89.2985 110.019 89.5465 109.429 90.0425 109.008C90.5438 108.581 91.3465 108.315 92.4505 108.208L94.7785 107.96L94.8985 108.808L92.5305 109.064C91.8425 109.133 91.3465 109.301 91.0425 109.568C90.7438 109.829 90.5945 110.192 90.5945 110.656C90.5945 111.141 90.7332 111.512 91.0105 111.768C91.2878 112.024 91.7012 112.152 92.2505 112.152C92.6292 112.152 93.0105 112.072 93.3945 111.912C93.7785 111.747 94.1225 111.472 94.4265 111.088V107.256C94.4265 106.723 94.3438 106.312 94.1785 106.024C94.0132 105.731 93.7652 105.525 93.4345 105.408C93.1038 105.291 92.6878 105.232 92.1865 105.232C91.8612 105.232 91.4905 105.261 91.0745 105.32C90.6638 105.379 90.2532 105.477 89.8425 105.616V104.568C90.2158 104.445 90.6265 104.352 91.0745 104.288C91.5278 104.219 91.9545 104.184 92.3545 104.184C93.0905 104.184 93.7038 104.28 94.1945 104.472C94.6905 104.664 95.0612 104.989 95.3065 105.448C95.5572 105.901 95.6825 106.523 95.6825 107.312V113H94.6105L94.5145 112.032H94.4345C94.1518 112.389 93.7892 112.664 93.3465 112.856C92.9092 113.048 92.4345 113.144 91.9225 113.144ZM100.077 113.152C99.6395 113.152 99.2209 113.123 98.8209 113.064C98.4262 113.005 98.0422 112.917 97.6689 112.8V111.776C98.0955 111.904 98.5035 111.997 98.8929 112.056C99.2822 112.109 99.6769 112.136 100.077 112.136C100.829 112.136 101.373 112.008 101.709 111.752C102.05 111.496 102.221 111.136 102.221 110.672C102.221 110.277 102.12 109.976 101.917 109.768C101.714 109.555 101.37 109.397 100.885 109.296L99.7089 109.056C98.9195 108.885 98.3542 108.605 98.0129 108.216C97.6769 107.821 97.5089 107.315 97.5089 106.696C97.5089 105.965 97.7889 105.365 98.3489 104.896C98.9142 104.421 99.7809 104.184 100.949 104.184C101.322 104.184 101.677 104.205 102.013 104.248C102.354 104.291 102.682 104.355 102.997 104.44V105.472C102.645 105.376 102.306 105.307 101.981 105.264C101.661 105.221 101.325 105.2 100.973 105.2C100.424 105.2 99.9835 105.267 99.6529 105.4C99.3275 105.528 99.0929 105.704 98.9489 105.928C98.8049 106.147 98.7329 106.392 98.7329 106.664C98.7329 107.005 98.8289 107.288 99.0209 107.512C99.2129 107.736 99.5489 107.901 100.029 108.008L101.205 108.248C102.005 108.413 102.578 108.685 102.925 109.064C103.277 109.443 103.453 109.957 103.453 110.608C103.453 111.392 103.165 112.013 102.589 112.472C102.018 112.925 101.181 113.152 100.077 113.152ZM108.426 113.152C107.541 113.152 106.853 112.925 106.362 112.472C105.872 112.013 105.626 111.283 105.626 110.28V104.32L105.834 101.16H106.906V110.072C106.906 110.803 107.056 111.315 107.354 111.608C107.658 111.901 108.109 112.048 108.706 112.048C108.866 112.048 109.032 112.037 109.202 112.016C109.373 111.989 109.56 111.955 109.762 111.912V112.992C109.549 113.045 109.33 113.085 109.106 113.112C108.882 113.139 108.656 113.152 108.426 113.152ZM103.994 105.376V104.32H109.634V105.376H103.994ZM115.005 113V104.32H116.085L116.173 105.304H116.261C116.592 104.931 116.97 104.651 117.397 104.464C117.829 104.277 118.288 104.184 118.773 104.184C119.253 104.184 119.682 104.283 120.061 104.48C120.44 104.677 120.738 105 120.957 105.448C121.176 105.891 121.285 106.485 121.285 107.232V113H120.021V107.312C120.021 106.565 119.874 106.048 119.581 105.76C119.288 105.472 118.901 105.328 118.421 105.328C118.181 105.328 117.93 105.368 117.669 105.448C117.413 105.528 117.165 105.656 116.925 105.832C116.685 106.003 116.472 106.232 116.285 106.52V113H115.005ZM124.965 113V107.312C124.965 106.565 124.81 106.048 124.501 105.76C124.197 105.472 123.805 105.328 123.325 105.328C123.08 105.328 122.818 105.371 122.541 105.456C122.269 105.536 122.002 105.677 121.741 105.88C121.485 106.077 121.261 106.349 121.069 106.696L120.749 105.664C121.17 105.115 121.637 104.731 122.149 104.512C122.661 104.293 123.154 104.184 123.629 104.184C124.13 104.184 124.578 104.285 124.973 104.488C125.368 104.685 125.677 105.008 125.901 105.456C126.13 105.904 126.245 106.504 126.245 107.256V113H124.965ZM131.807 113.152C131.061 113.152 130.41 112.997 129.855 112.688C129.301 112.373 128.871 111.888 128.567 111.232C128.263 110.571 128.111 109.715 128.111 108.664C128.111 107.624 128.261 106.773 128.559 106.112C128.863 105.451 129.293 104.965 129.847 104.656C130.402 104.341 131.055 104.184 131.807 104.184C132.559 104.184 133.213 104.341 133.767 104.656C134.322 104.965 134.749 105.451 135.047 106.112C135.351 106.768 135.503 107.619 135.503 108.664C135.503 109.704 135.349 110.555 135.039 111.216C134.735 111.877 134.306 112.365 133.751 112.68C133.202 112.995 132.554 113.152 131.807 113.152ZM131.807 112.112C132.298 112.112 132.722 112.005 133.079 111.792C133.437 111.579 133.711 111.224 133.903 110.728C134.101 110.227 134.199 109.547 134.199 108.688C134.199 107.813 134.101 107.125 133.903 106.624C133.711 106.117 133.434 105.76 133.071 105.552C132.714 105.339 132.293 105.232 131.807 105.232C131.317 105.232 130.893 105.339 130.535 105.552C130.178 105.76 129.901 106.115 129.703 106.616C129.511 107.112 129.415 107.789 129.415 108.648C129.415 109.517 129.511 110.205 129.703 110.712C129.901 111.213 130.178 111.573 130.535 111.792C130.893 112.005 131.317 112.112 131.807 112.112ZM137.458 113V104.32H138.538L138.626 105.296H138.714C139.066 104.939 139.477 104.664 139.946 104.472C140.415 104.28 140.914 104.184 141.442 104.184C141.986 104.184 142.466 104.285 142.882 104.488C143.303 104.685 143.631 105.011 143.866 105.464C144.106 105.912 144.226 106.512 144.226 107.264V113H142.954V107.32C142.954 106.573 142.789 106.056 142.458 105.768C142.133 105.475 141.69 105.328 141.13 105.328C140.874 105.328 140.602 105.365 140.314 105.44C140.026 105.515 139.743 105.637 139.466 105.808C139.194 105.979 138.951 106.205 138.738 106.488V113H137.458ZM149.864 113.152C148.978 113.152 148.29 112.925 147.8 112.472C147.309 112.013 147.064 111.283 147.064 110.28V104.32L147.272 101.16H148.344V110.072C148.344 110.803 148.493 111.315 148.792 111.608C149.096 111.901 149.546 112.048 150.144 112.048C150.304 112.048 150.469 112.037 150.64 112.016C150.81 111.989 150.997 111.955 151.2 111.912V112.992C150.986 113.045 150.768 113.085 150.544 113.112C150.32 113.139 150.093 113.152 149.864 113.152ZM145.432 105.376V104.32H151.072V105.376H145.432ZM152.567 113V100.072H153.847V105.288H153.919C154.271 104.92 154.677 104.645 155.135 104.464C155.594 104.277 156.082 104.184 156.599 104.184C157.127 104.184 157.597 104.285 158.007 104.488C158.423 104.685 158.749 105.008 158.983 105.456C159.218 105.904 159.335 106.504 159.335 107.256V113H158.063V107.312C158.063 106.565 157.895 106.051 157.559 105.768C157.229 105.48 156.789 105.336 156.239 105.336C155.973 105.336 155.695 105.376 155.407 105.456C155.119 105.531 154.839 105.653 154.567 105.824C154.295 105.989 154.055 106.211 153.847 106.488V113H152.567Z" fill="#BDBDBD"/>
<path fill-rule="evenodd" clip-rule="evenodd" d="M342.75 93.3333C342.75 94.7482 341.845 95.9528 340.583 96.3992L340.583 97.6667C340.583 97.954 340.469 98.2295 340.266 98.4327C340.063 98.6359 339.787 98.75 339.5 98.75C339.213 98.75 338.937 98.6359 338.734 98.4327C338.531 98.2295 338.417 97.954 338.417 97.6667L338.417 96.3992C337.782 96.1753 337.233 95.7603 336.845 95.2112C336.456 94.6621 336.247 94.006 336.247 93.3333C336.247 92.6607 336.456 92.0046 336.845 91.4555C337.233 90.9064 337.782 90.4913 338.417 90.2675L338.417 80.3333C338.417 80.046 338.531 79.7705 338.734 79.5673C338.937 79.3641 339.213 79.25 339.5 79.25C339.787 79.25 340.063 79.3641 340.266 79.5673C340.469 79.7705 340.583 80.046 340.583 80.3333L340.583 90.2675C341.217 90.4918 341.766 90.907 342.154 91.4561C342.542 92.0051 342.75 92.661 342.75 93.3333ZM340.583 93.3333C340.583 93.046 340.469 92.7705 340.266 92.5673C340.063 92.3641 339.787 92.25 339.5 92.25C339.213 92.25 338.937 92.3641 338.734 92.5673C338.531 92.7705 338.417 93.046 338.417 93.3333C338.417 93.6207 338.531 93.8962 338.734 94.0994C338.937 94.3025 339.213 94.4167 339.5 94.4167C339.787 94.4167 340.063 94.3025 340.266 94.0994C340.469 93.8962 340.583 93.6207 340.583 93.3333ZM349.25 84.6667C349.25 85.3047 349.062 85.9287 348.71 86.4608C348.358 86.9929 347.857 87.4096 347.27 87.6588L347.083 87.7314L347.083 97.6667C347.083 97.9428 346.977 98.2084 346.788 98.4091C346.598 98.6099 346.339 98.7308 346.063 98.7469C345.788 98.7631 345.516 98.6734 345.305 98.4962C345.093 98.319 344.957 98.0676 344.924 97.7934L344.917 97.6667L344.917 87.7325C344.299 87.5141 343.761 87.1141 343.375 86.585C342.988 86.0558 342.771 85.4222 342.751 84.7673C342.731 84.1123 342.909 83.4665 343.262 82.9146C343.615 82.3627 344.127 81.9305 344.73 81.6745L344.917 81.6008L344.917 80.3333C344.917 80.0572 345.023 79.7916 345.212 79.5909C345.402 79.3901 345.661 79.2692 345.937 79.2531C346.212 79.2369 346.484 79.3266 346.695 79.5038C346.907 79.681 347.043 79.9324 347.076 80.2066L347.083 80.3333L347.083 81.6008C347.717 81.8251 348.266 82.2403 348.654 82.7894C349.042 83.3385 349.25 83.9943 349.25 84.6667ZM347.083 84.6667C347.083 84.3793 346.969 84.1038 346.766 83.9006C346.563 83.6975 346.287 83.5833 346 83.5833C345.713 83.5833 345.437 83.6975 345.234 83.9006C345.031 84.1038 344.917 84.3793 344.917 84.6667C344.917 84.954 345.031 85.2295 345.234 85.4327C345.437 85.6359 345.713 85.75 346 85.75C346.287 85.75 346.563 85.6359 346.766 85.4327C346.969 85.2295 347.083 84.954 347.083 84.6667ZM355.75 93.3333C355.75 94.7482 354.845 95.9528 353.583 96.3992L353.583 97.6667C353.583 97.954 353.469 98.2295 353.266 98.4327C353.063 98.6359 352.787 98.75 352.5 98.75C352.213 98.75 351.937 98.6359 351.734 98.4327C351.531 98.2295 351.417 97.954 351.417 97.6667L351.417 96.3992C350.782 96.1753 350.233 95.7603 349.845 95.2112C349.456 94.6621 349.247 94.006 349.247 93.3333C349.247 92.6607 349.456 92.0046 349.845 91.4555C350.233 90.9064 350.782 90.4913 351.417 90.2675L351.417 80.3333C351.417 80.046 351.531 79.7705 351.734 79.5673C351.937 79.3641 352.213 79.25 352.5 79.25C352.787 79.25 353.063 79.3641 353.266 79.5673C353.469 79.7705 353.583 80.046 353.583 80.3333L353.583 90.2675C354.217 90.4918 354.766 90.907 355.154 91.4561C355.542 92.0051 355.75 92.661 355.75 93.3333ZM353.583 93.3333C353.583 93.046 353.469 92.7705 353.266 92.5673C353.063 92.3641 352.787 92.25 352.5 92.25C352.213 92.25 351.937 92.3641 351.734 92.5673C351.531 92.7705 351.417 93.046 351.417 93.3333C351.417 93.6207 351.531 93.8962 351.734 94.0994C351.937 94.3025 352.213 94.4167 352.5 94.4167C352.787 94.4167 353.063 94.3025 353.266 94.0994C353.469 93.8962 353.583 93.6207 353.583 93.3333Z" fill="#6F29B2"/>
<circle cx="84.5" cy="247" r="4.5" fill="#7A3AB8"/>
<path d="M104.207 248.126C103.757 248.126 103.3 248.09 102.833 248.019C102.371 247.952 101.945 247.859 101.554 247.742V245.795C101.815 245.879 102.1 245.95 102.411 246.009C102.722 246.064 103.029 246.108 103.331 246.141C103.638 246.175 103.915 246.192 104.163 246.192C104.574 246.192 104.896 246.158 105.127 246.091C105.362 246.02 105.528 245.919 105.624 245.789C105.721 245.658 105.769 245.505 105.769 245.329C105.769 245.106 105.689 244.93 105.53 244.8C105.374 244.665 105.061 244.537 104.591 244.415L103.822 244.22C102.995 244.014 102.367 243.689 101.939 243.243C101.515 242.798 101.302 242.212 101.302 241.486C101.302 240.562 101.645 239.841 102.329 239.325C103.014 238.808 104.06 238.55 105.467 238.55C105.874 238.55 106.267 238.573 106.645 238.619C107.027 238.665 107.367 238.724 107.665 238.796V240.742C107.376 240.663 107.046 240.6 106.676 240.553C106.307 240.507 105.958 240.484 105.631 240.484C105.127 240.484 104.734 240.522 104.452 240.597C104.175 240.673 103.98 240.778 103.867 240.912C103.757 241.043 103.703 241.19 103.703 241.353C103.703 241.559 103.77 241.725 103.904 241.851C104.043 241.973 104.312 242.088 104.711 242.198L105.486 242.393C106.099 242.544 106.603 242.744 106.998 242.991C107.397 243.235 107.691 243.537 107.88 243.899C108.073 244.256 108.169 244.678 108.169 245.165C108.169 245.774 108.012 246.301 107.697 246.746C107.386 247.187 106.935 247.527 106.342 247.767C105.754 248.006 105.043 248.126 104.207 248.126ZM103.621 249.512V247.565L105.851 247.559V249.512H103.621ZM103.621 239.004V237.164H105.851V239.004H103.621ZM118.632 255.2C117.911 255.2 117.207 255.154 116.521 255.063C115.842 254.972 115.198 254.839 114.589 254.664V252.112C115.184 252.28 115.828 252.413 116.521 252.511C117.214 252.609 117.872 252.658 118.495 252.658C119.615 252.658 120.431 252.473 120.942 252.102C121.453 251.731 121.708 251.188 121.708 250.474C121.708 249.788 121.463 249.263 120.973 248.899C120.49 248.528 119.671 248.343 118.516 248.343H116.238V245.76H118.002C119.122 245.76 119.923 245.581 120.406 245.224C120.896 244.867 121.141 244.367 121.141 243.723C121.141 243.093 120.917 242.617 120.469 242.295C120.028 241.966 119.328 241.801 118.369 241.801C117.788 241.801 117.19 241.85 116.574 241.948C115.965 242.046 115.394 242.19 114.862 242.379V239.827C115.198 239.715 115.583 239.617 116.017 239.533C116.451 239.442 116.903 239.376 117.372 239.334C117.841 239.285 118.296 239.26 118.737 239.26C120.62 239.26 122.034 239.624 122.979 240.352C123.931 241.073 124.407 242.095 124.407 243.418C124.407 244.356 124.137 245.147 123.598 245.791C123.066 246.435 122.328 246.859 121.383 247.062L121.393 246.894C122.52 247.062 123.388 247.468 123.997 248.112C124.606 248.749 124.911 249.606 124.911 250.684C124.911 251.622 124.68 252.431 124.218 253.11C123.763 253.782 123.07 254.3 122.139 254.664C121.208 255.021 120.039 255.2 118.632 255.2ZM128.5 255.179C127.842 255.179 127.314 254.997 126.915 254.632C126.523 254.268 126.327 253.775 126.327 253.152C126.327 252.522 126.519 252.025 126.904 251.661C127.296 251.297 127.828 251.115 128.5 251.115C129.172 251.115 129.701 251.3 130.086 251.671C130.478 252.043 130.674 252.536 130.674 253.152C130.674 253.761 130.474 254.251 130.075 254.622C129.683 254.993 129.158 255.179 128.5 255.179ZM136.45 255.2C135.729 255.2 135.025 255.147 134.339 255.042C133.653 254.944 133.009 254.804 132.407 254.622V252.07C132.995 252.238 133.636 252.375 134.329 252.48C135.022 252.578 135.683 252.627 136.313 252.627C137.426 252.627 138.235 252.441 138.739 252.07C139.243 251.699 139.495 251.157 139.495 250.443C139.495 249.96 139.365 249.557 139.106 249.235C138.847 248.913 138.382 248.661 137.71 248.479C137.045 248.29 136.096 248.157 134.864 248.08L132.89 247.975L133.426 239.46H142.088V242.085H135.074L136.565 240.615L136.156 246.673L134.161 245.466L136.124 245.581C137.699 245.665 138.97 245.896 139.936 246.274C140.902 246.652 141.605 247.181 142.046 247.86C142.494 248.539 142.718 249.372 142.718 250.359C142.718 251.934 142.19 253.134 141.133 253.96C140.076 254.786 138.515 255.2 136.45 255.2ZM153.949 255L148.531 247.083L153.624 239.46H157.215L151.87 247.461L151.923 246.579L157.666 255H153.949ZM144.615 255V239.46H148.027V255H144.615ZM147.555 248.553V245.55H149.875V248.553H147.555Z" fill="#905BC4"/>
</g>
<defs>
<filter id="filter0_d_38_233" x="0.429077" y="0" width="434.571" height="330" filterUnits="userSpaceOnUse" color-interpolation-filters="sRGB">
<feFlood flood-opacity="0" result="BackgroundImageFix"/>
<feColorMatrix in="SourceAlpha" type="matrix" values="0 0 0 0 0 0 0 0 0 0 0 0 0 0 0 0 0 0 127 0" result="hardAlpha"/>
<feOffset/>
<feGaussianBlur stdDeviation="20"/>
<feComposite in2="hardAlpha" operator="out"/>
<feColorMatrix type="matrix" values="0 0 0 0 0 0 0 0 0 0 0 0 0 0 0 0 0 0 0.25 0"/>
<feBlend mode="normal" in2="BackgroundImageFix" result="effect1_dropShadow_38_233"/>
<feBlend mode="normal" in="SourceGraphic" in2="effect1_dropShadow_38_233" result="shape"/>
</filter>
<filter id="filter1_d_38_233" x="34.4291" y="126.25" width="340.756" height="79.3663" filterUnits="userSpaceOnUse" color-interpolation-filters="sRGB">
<feFlood flood-opacity="0" result="BackgroundImageFix"/>
<feColorMatrix in="SourceAlpha" type="matrix" values="0 0 0 0 0 0 0 0 0 0 0 0 0 0 0 0 0 0 127 0" result="hardAlpha"/>
<feOffset dx="-2" dy="8"/>
<feGaussianBlur stdDeviation="2"/>
<feComposite in2="hardAlpha" operator="out"/>
<feColorMatrix type="matrix" values="0 0 0 0 0 0 0 0 0 0 0 0 0 0 0 0 0 0 0.25 0"/>
<feBlend mode="normal" in2="BackgroundImageFix" result="effect1_dropShadow_38_233"/>
<feBlend mode="normal" in="SourceGraphic" in2="effect1_dropShadow_38_233" result="shape"/>
</filter>
<linearGradient id="paint0_linear_38_233" x1="59.5" y1="52" x2="338.5" y2="290" gradientUnits="userSpaceOnUse">
<stop offset="0.304" stop-color="#FBFAFC"/>
<stop offset="1" stop-color="#D7C1EF"/>
</linearGradient>
</defs>
</svg>
