<svg width="32" height="32" viewBox="0 0 32 32" fill="none" xmlns="http://www.w3.org/2000/svg">
<path d="M16 2.66666C23.364 2.66666 29.3333 8.63599 29.3333 16C29.3333 23.364 23.364 29.3333 16 29.3333C8.636 29.3333 2.66667 23.364 2.66667 16C2.66667 8.63599 8.636 2.66666 16 2.66666ZM16 5.33332C13.171 5.33332 10.4579 6.45713 8.45753 8.45752C6.45714 10.4579 5.33334 13.171 5.33334 16C5.33334 18.829 6.45714 21.5421 8.45753 23.5425C10.4579 25.5428 13.171 26.6667 16 26.6667C18.829 26.6667 21.5421 25.5428 23.5425 23.5425C25.5429 21.5421 26.6667 18.829 26.6667 16C26.6667 13.171 25.5429 10.4579 23.5425 8.45752C21.5421 6.45713 18.829 5.33332 16 5.33332ZM16 7.99999C16.3266 8.00003 16.6418 8.11993 16.8858 8.33694C17.1299 8.55396 17.2858 8.85299 17.324 9.17732L17.3333 9.33332V15.448L20.9427 19.0573C21.1818 19.2973 21.3206 19.6192 21.331 19.9578C21.3413 20.2964 21.2224 20.6263 20.9983 20.8804C20.7743 21.1344 20.4619 21.2937 20.1247 21.3259C19.7875 21.358 19.4507 21.2605 19.1827 21.0533L19.0573 20.9427L15.0573 16.9427C14.8501 16.7353 14.717 16.4653 14.6787 16.1747L14.6667 16V9.33332C14.6667 8.9797 14.8071 8.64056 15.0572 8.39051C15.3072 8.14047 15.6464 7.99999 16 7.99999Z" fill="#3D2E87"/>
</svg>
